<svg xmlns="http://www.w3.org/2000/svg" viewBox="0 0 64 64" fill="none">
  <defs>
    <linearGradient id="bg" x1="0" y1="0" x2="64" y2="64" gradientUnits="userSpaceOnUse">
      <stop offset="0%" stop-color="#1C1F2E"/>
      <stop offset="100%" stop-color="#0F1117"/>
    </linearGradient>
    <linearGradient id="glow" x1="8" y1="8" x2="56" y2="56" gradientUnits="userSpaceOnUse">
      <stop offset="0%" stop-color="#60A5FA"/>
      <stop offset="100%" stop-color="#2563EB"/>
    </linearGradient>
    <filter id="f1">
      <feGaussianBlur in="SourceGraphic" stdDeviation="2.5" result="blur"/>
      <feMerge><feMergeNode in="blur"/><feMergeNode in="SourceGraphic"/></feMerge>
    </filter>
  </defs>
  <rect width="64" height="64" rx="14" fill="url(#bg)"/>
  <circle cx="32" cy="32" r="20" fill="#2563EB" fill-opacity="0.07" filter="url(#f1)"/>
  <path d="M40 22.5C37.5 20 34.9 19 32 19C25.4 19 20 24.4 20 31S25.4 43 32 43C35.4 43 38.5 41.7 40.7 39.5L41 39V32H32V35.5H37.5V38C36.1 39.1 34.1 39.5 32 39.5C27.3 39.5 23.5 35.7 23.5 31S27.3 22.5 32 22.5C34.2 22.5 36.2 23.4 37.7 24.8L40 22.5Z" fill="url(#glow)" filter="url(#f1)"/>
  <circle cx="45" cy="20" r="3.5" fill="#60A5FA" opacity="0.9"/>
  <circle cx="45" cy="20" r="5.5" fill="#2563EB" fill-opacity="0.2"/>
  <line x1="45" y1="23.5" x2="45" y2="28" stroke="#3B82F6" stroke-width="1" stroke-opacity="0.5" stroke-dasharray="2 2"/>
  <line x1="41.5" y1="20" x2="37" y2="20" stroke="#3B82F6" stroke-width="1" stroke-opacity="0.5" stroke-dasharray="2 2"/>
</svg>
